G75*
%MOIN*%
%OFA0B0*%
%FSLAX25Y25*%
%IPPOS*%
%LPD*%
%AMOC8*
5,1,8,0,0,1.08239X$1,22.5*
%
%ADD10C,0.05600*%
%ADD11R,0.03962X0.03962*%
%ADD12C,0.01000*%
D10*
X0017346Y0059635D02*
X0022946Y0059635D01*
X0022946Y0069635D02*
X0017346Y0069635D01*
X0017346Y0079635D02*
X0022946Y0079635D01*
X0120772Y0057076D02*
X0126372Y0057076D01*
X0126372Y0047076D02*
X0120772Y0047076D01*
X0120772Y0037076D02*
X0126372Y0037076D01*
D11*
X0051209Y0028375D03*
X0063808Y0027981D03*
X0122272Y0063808D03*
X0077587Y0084674D03*
X0061249Y0084674D03*
X0050619Y0090973D03*
D12*
X0050619Y0091761D01*
X0060265Y0101406D01*
X0121485Y0101406D01*
X0127784Y0095107D01*
X0127784Y0067745D01*
X0123847Y0063808D01*
X0122272Y0063808D01*
X0077587Y0081131D02*
X0077587Y0084674D01*
X0077587Y0081131D02*
X0073650Y0077194D01*
X0064989Y0077194D01*
X0061052Y0073257D01*
X0061052Y0029753D01*
X0062824Y0027981D01*
X0063808Y0027981D01*
X0057312Y0029950D02*
X0055934Y0028572D01*
X0051406Y0028572D01*
X0051209Y0028375D01*
X0057312Y0029950D02*
X0057312Y0076013D01*
X0061249Y0079950D01*
X0061249Y0084674D01*
M02*
