G75*
%MOIN*%
%OFA0B0*%
%FSLAX25Y25*%
%IPPOS*%
%LPD*%
%AMOC8*
5,1,8,0,0,1.08239X$1,22.5*
%
%ADD10R,0.01969X0.00984*%
%ADD11R,0.00984X0.01969*%
%ADD12C,0.00984*%
%ADD13R,0.05118X0.05906*%
%ADD14R,0.05906X0.05118*%
%ADD15C,0.05600*%
%ADD16C,0.01000*%
%ADD17R,0.03962X0.03962*%
%ADD18C,0.01600*%
D10*
X0064202Y0038335D03*
X0064202Y0040304D03*
X0064202Y0042272D03*
X0064202Y0044241D03*
X0064202Y0046209D03*
X0078769Y0046209D03*
X0078769Y0044241D03*
X0078769Y0042272D03*
X0078769Y0040304D03*
X0078769Y0038335D03*
D11*
X0075422Y0034989D03*
X0073454Y0034989D03*
X0071485Y0034989D03*
X0069517Y0034989D03*
X0067548Y0034989D03*
X0067548Y0049556D03*
X0069517Y0049556D03*
X0071485Y0049556D03*
X0073454Y0049556D03*
X0075422Y0049556D03*
D12*
X0075914Y0037843D02*
X0067056Y0037843D01*
X0067056Y0046701D01*
X0075914Y0046701D01*
X0075914Y0037843D01*
X0075914Y0038826D02*
X0067056Y0038826D01*
X0067056Y0039809D02*
X0075914Y0039809D01*
X0075914Y0040792D02*
X0067056Y0040792D01*
X0067056Y0041775D02*
X0075914Y0041775D01*
X0075914Y0042758D02*
X0067056Y0042758D01*
X0067056Y0043741D02*
X0075914Y0043741D01*
X0075914Y0044724D02*
X0067056Y0044724D01*
X0067056Y0045707D02*
X0075914Y0045707D01*
X0075914Y0046690D02*
X0067056Y0046690D01*
D13*
X0065894Y0061800D03*
X0058414Y0061800D03*
X0046800Y0065580D03*
X0039320Y0065580D03*
X0039517Y0074910D03*
X0046997Y0074910D03*
X0067745Y0077272D03*
X0075225Y0077272D03*
X0087745Y0077272D03*
X0095225Y0077272D03*
X0107509Y0077469D03*
X0114989Y0077469D03*
X0115776Y0092469D03*
X0108296Y0092469D03*
X0110816Y0102745D03*
X0103335Y0102745D03*
X0095225Y0092272D03*
X0087745Y0092272D03*
X0075816Y0092036D03*
X0068335Y0092036D03*
X0046603Y0055107D03*
X0039123Y0055107D03*
X0038926Y0045816D03*
X0046406Y0045816D03*
X0023572Y0044713D03*
X0016091Y0044713D03*
X0016091Y0033965D03*
X0023572Y0033965D03*
X0049635Y0014713D03*
X0057115Y0014713D03*
X0082154Y0021603D03*
X0089635Y0021603D03*
D14*
X0088532Y0048650D03*
X0088532Y0056131D03*
X0101209Y0056131D03*
X0101209Y0048650D03*
X0039083Y0021564D03*
X0039083Y0014083D03*
X0026603Y0014044D03*
X0026603Y0021524D03*
X0015186Y0021524D03*
X0015186Y0014044D03*
D15*
X0017346Y0059635D02*
X0022946Y0059635D01*
X0022946Y0069635D02*
X0017346Y0069635D01*
X0017346Y0079635D02*
X0022946Y0079635D01*
X0120772Y0057076D02*
X0126372Y0057076D01*
X0126372Y0047076D02*
X0120772Y0047076D01*
X0120772Y0037076D02*
X0126372Y0037076D01*
D16*
X0018532Y0004753D02*
X0015186Y0008099D01*
X0015186Y0014044D01*
X0015186Y0021524D02*
X0005737Y0030973D01*
X0005737Y0086249D01*
X0012627Y0093139D01*
X0043729Y0093139D01*
X0053335Y0102745D01*
X0103335Y0102745D01*
X0102981Y0098060D02*
X0101997Y0097076D01*
X0101997Y0084871D01*
X0100225Y0083099D01*
X0096485Y0083099D01*
X0094910Y0081524D01*
X0094910Y0077587D01*
X0095225Y0077272D01*
X0095304Y0077194D01*
X0095304Y0070698D01*
X0093335Y0068729D01*
X0075816Y0068729D01*
X0072863Y0065776D01*
X0072863Y0058099D01*
X0069517Y0054753D01*
X0069517Y0049556D01*
X0067548Y0049556D02*
X0067548Y0060146D01*
X0065894Y0061800D01*
X0065894Y0075422D01*
X0067745Y0077272D01*
X0075225Y0077272D02*
X0087745Y0077272D01*
X0087745Y0092272D01*
X0095225Y0092272D02*
X0095894Y0092942D01*
X0095894Y0097666D01*
X0093729Y0099831D01*
X0078769Y0099831D01*
X0075816Y0096879D01*
X0075816Y0092036D01*
X0077587Y0090265D01*
X0077587Y0084674D01*
X0068335Y0092036D02*
X0061721Y0092036D01*
X0060658Y0090973D01*
X0060658Y0085265D01*
X0061249Y0084674D01*
X0050619Y0090973D02*
X0046997Y0087351D01*
X0046997Y0074910D01*
X0046997Y0065776D01*
X0046800Y0065580D01*
X0039320Y0065580D02*
X0039320Y0064359D01*
X0034595Y0059635D01*
X0039123Y0055107D01*
X0034595Y0059635D02*
X0020146Y0059635D01*
X0012627Y0052587D02*
X0011249Y0053965D01*
X0011249Y0067745D01*
X0013414Y0069910D01*
X0019871Y0069910D01*
X0020146Y0069635D01*
X0020422Y0069910D01*
X0032902Y0069910D01*
X0037902Y0074910D01*
X0039517Y0074910D01*
X0020146Y0079635D02*
X0012115Y0079635D01*
X0008887Y0076406D01*
X0008887Y0041170D01*
X0016091Y0033965D01*
X0016957Y0039005D02*
X0015973Y0039989D01*
X0015973Y0044595D01*
X0016091Y0044713D01*
X0016957Y0039005D02*
X0023060Y0039005D01*
X0023572Y0038493D01*
X0023572Y0033965D01*
X0056013Y0033965D01*
X0060461Y0038414D01*
X0064123Y0038414D01*
X0064202Y0038335D01*
X0064202Y0040304D02*
X0058414Y0040304D01*
X0055146Y0037036D01*
X0033493Y0037036D01*
X0031328Y0039202D01*
X0031328Y0043729D01*
X0030343Y0044713D01*
X0023572Y0044713D01*
X0028572Y0052587D02*
X0012627Y0052587D01*
X0028572Y0052587D02*
X0035343Y0045816D01*
X0038926Y0045816D01*
X0046406Y0045816D02*
X0047509Y0044713D01*
X0051603Y0044713D01*
X0054044Y0042272D01*
X0064202Y0042272D01*
X0064202Y0044241D02*
X0056997Y0044241D01*
X0052784Y0048454D01*
X0052784Y0053178D01*
X0051406Y0054556D01*
X0047154Y0054556D01*
X0046603Y0055107D01*
X0057902Y0061288D02*
X0057902Y0047469D01*
X0059162Y0046209D01*
X0064202Y0046209D01*
X0071485Y0049556D02*
X0071485Y0052784D01*
X0075816Y0057115D01*
X0075816Y0061643D01*
X0078375Y0064202D01*
X0104556Y0064202D01*
X0107312Y0066957D01*
X0107312Y0077272D01*
X0107509Y0077469D01*
X0108296Y0078257D01*
X0108296Y0092469D01*
X0107706Y0098060D02*
X0102981Y0098060D01*
X0107706Y0098060D02*
X0110816Y0101170D01*
X0110816Y0102745D01*
X0115776Y0092469D02*
X0121367Y0092469D01*
X0123454Y0090383D01*
X0123454Y0069320D01*
X0125816Y0066957D01*
X0130540Y0066957D01*
X0133296Y0064202D01*
X0133296Y0049635D01*
X0130737Y0047076D01*
X0123572Y0047076D01*
X0121997Y0048650D01*
X0101209Y0048650D01*
X0098847Y0046288D01*
X0098847Y0033493D01*
X0097666Y0032312D01*
X0081524Y0032312D01*
X0073060Y0040776D01*
X0073060Y0043335D01*
X0073965Y0044241D01*
X0078769Y0044241D01*
X0077076Y0044241D01*
X0075028Y0046288D01*
X0074635Y0045894D01*
X0074635Y0045422D01*
X0071485Y0042272D01*
X0075028Y0046288D02*
X0075422Y0046682D01*
X0075422Y0049556D01*
X0073454Y0049556D02*
X0073454Y0051603D01*
X0076209Y0054359D01*
X0081328Y0054359D01*
X0082902Y0052784D01*
X0086249Y0056131D01*
X0088532Y0056131D01*
X0101209Y0056131D01*
X0103572Y0056131D01*
X0114595Y0067154D01*
X0114989Y0067154D01*
X0116761Y0065383D01*
X0115580Y0064202D01*
X0115580Y0059280D01*
X0117784Y0057076D01*
X0123572Y0057076D01*
X0122076Y0063611D02*
X0118532Y0063611D01*
X0116761Y0065383D01*
X0114595Y0067154D02*
X0114595Y0077076D01*
X0114989Y0077469D01*
X0122272Y0063808D02*
X0122076Y0063611D01*
X0095107Y0047469D02*
X0095107Y0043729D01*
X0093650Y0042272D01*
X0078769Y0042272D01*
X0078769Y0046209D02*
X0078847Y0046288D01*
X0082312Y0046288D01*
X0082902Y0046879D01*
X0082902Y0052784D01*
X0088532Y0048650D02*
X0088926Y0048257D01*
X0094320Y0048257D01*
X0095107Y0047469D01*
X0075422Y0034989D02*
X0075422Y0032115D01*
X0078769Y0028769D01*
X0081131Y0028769D01*
X0082706Y0027194D01*
X0082706Y0024044D01*
X0085068Y0026406D01*
X0095107Y0026406D01*
X0095501Y0026013D01*
X0095501Y0021879D01*
X0100422Y0026800D01*
X0119910Y0026800D01*
X0122469Y0029359D01*
X0122469Y0035973D01*
X0123572Y0037076D01*
X0095501Y0021879D02*
X0095501Y0010265D01*
X0089989Y0004753D01*
X0018532Y0004753D01*
X0026603Y0014044D02*
X0035265Y0014044D01*
X0033690Y0015619D01*
X0033690Y0027981D01*
X0037430Y0031721D01*
X0054950Y0031721D01*
X0058493Y0028178D01*
X0058493Y0024044D01*
X0058887Y0023650D01*
X0068139Y0023650D01*
X0069517Y0025028D01*
X0069517Y0034989D01*
X0067548Y0034989D02*
X0067548Y0028375D01*
X0067154Y0027981D01*
X0063808Y0027981D01*
X0071091Y0021485D02*
X0048060Y0021485D01*
X0047666Y0021879D01*
X0039398Y0021879D01*
X0039083Y0021564D01*
X0039005Y0021643D01*
X0039005Y0024831D01*
X0042548Y0028375D01*
X0051209Y0028375D01*
X0048060Y0021485D02*
X0049635Y0019910D01*
X0049635Y0014713D01*
X0057115Y0014713D02*
X0076524Y0014713D01*
X0078473Y0016662D01*
X0079162Y0015973D01*
X0089005Y0015973D01*
X0089989Y0016957D01*
X0089989Y0021249D01*
X0089635Y0021603D01*
X0082706Y0022154D02*
X0082154Y0021603D01*
X0082706Y0022154D02*
X0082706Y0024044D01*
X0078473Y0016662D02*
X0073454Y0021682D01*
X0073454Y0034989D01*
X0071485Y0034989D02*
X0071485Y0021879D01*
X0071091Y0021485D01*
X0039083Y0014083D02*
X0039044Y0014044D01*
X0035265Y0014044D01*
X0026603Y0021524D02*
X0015186Y0021524D01*
X0057902Y0061288D02*
X0058414Y0061800D01*
D17*
X0061249Y0084674D03*
X0050619Y0090973D03*
X0077587Y0084674D03*
X0122272Y0063808D03*
X0063808Y0027981D03*
X0051209Y0028375D03*
D18*
X0075554Y0049556D02*
X0075554Y0049556D01*
X0077714Y0049556D01*
X0077714Y0050777D01*
X0077591Y0051235D01*
X0077355Y0051645D01*
X0077019Y0051981D01*
X0076881Y0052061D01*
X0077079Y0052259D01*
X0080458Y0052259D01*
X0080802Y0051914D01*
X0080802Y0048388D01*
X0077977Y0048388D01*
X0077891Y0048302D01*
X0077705Y0048302D01*
X0077714Y0048335D01*
X0077714Y0049556D01*
X0075554Y0049556D01*
X0077714Y0049165D02*
X0080802Y0049165D01*
X0080802Y0050763D02*
X0077714Y0050763D01*
X0081353Y0040172D02*
X0094520Y0040172D01*
X0095977Y0041629D01*
X0097207Y0042859D01*
X0097207Y0044619D01*
X0097562Y0044414D01*
X0098020Y0044291D01*
X0100730Y0044291D01*
X0100730Y0048171D01*
X0097207Y0048171D01*
X0097207Y0048339D01*
X0096420Y0049127D01*
X0095190Y0050357D01*
X0093085Y0050357D01*
X0093085Y0051872D01*
X0092567Y0052391D01*
X0093085Y0052909D01*
X0093085Y0054031D01*
X0096657Y0054031D01*
X0096657Y0052909D01*
X0097034Y0052532D01*
X0096816Y0052315D01*
X0096579Y0051904D01*
X0096457Y0051446D01*
X0096457Y0049130D01*
X0100730Y0049130D01*
X0100730Y0048171D01*
X0101689Y0048171D01*
X0101689Y0049130D01*
X0105962Y0049130D01*
X0105962Y0051446D01*
X0105840Y0051904D01*
X0105603Y0052315D01*
X0105385Y0052532D01*
X0105762Y0052909D01*
X0105762Y0055351D01*
X0113480Y0063069D01*
X0113480Y0058410D01*
X0114710Y0057180D01*
X0116854Y0055036D01*
X0117042Y0054583D01*
X0118279Y0053345D01*
X0119896Y0052676D01*
X0127247Y0052676D01*
X0128864Y0053345D01*
X0130102Y0054583D01*
X0130772Y0056200D01*
X0130772Y0057951D01*
X0130102Y0059568D01*
X0128864Y0060806D01*
X0127247Y0061476D01*
X0125854Y0061476D01*
X0125854Y0066452D01*
X0124916Y0067389D01*
X0119629Y0067389D01*
X0118691Y0066452D01*
X0118691Y0066422D01*
X0117630Y0067483D01*
X0116695Y0068418D01*
X0116695Y0072917D01*
X0118211Y0072917D01*
X0119148Y0073854D01*
X0119148Y0081085D01*
X0118211Y0082022D01*
X0111767Y0082022D01*
X0111249Y0081504D01*
X0110730Y0082022D01*
X0110396Y0082022D01*
X0110396Y0087917D01*
X0111518Y0087917D01*
X0111895Y0088293D01*
X0112112Y0088076D01*
X0112523Y0087839D01*
X0112980Y0087717D01*
X0115297Y0087717D01*
X0115297Y0091990D01*
X0116256Y0091990D01*
X0116256Y0092949D01*
X0115297Y0092949D01*
X0115297Y0097222D01*
X0112980Y0097222D01*
X0112523Y0097099D01*
X0112112Y0096862D01*
X0111895Y0096645D01*
X0111518Y0097022D01*
X0109638Y0097022D01*
X0109805Y0097190D01*
X0110808Y0098192D01*
X0114038Y0098192D01*
X0114975Y0099129D01*
X0114975Y0103528D01*
X0131834Y0103503D01*
X0131655Y0006769D01*
X0094759Y0006553D01*
X0096371Y0008165D01*
X0097601Y0009395D01*
X0097601Y0021009D01*
X0101292Y0024700D01*
X0120780Y0024700D01*
X0123339Y0027259D01*
X0124569Y0028489D01*
X0124569Y0032676D01*
X0127247Y0032676D01*
X0128864Y0033345D01*
X0130102Y0034583D01*
X0130772Y0036200D01*
X0130772Y0037951D01*
X0130102Y0039568D01*
X0128864Y0040806D01*
X0127247Y0041476D01*
X0119896Y0041476D01*
X0118279Y0040806D01*
X0117042Y0039568D01*
X0116372Y0037951D01*
X0116372Y0036200D01*
X0117042Y0034583D01*
X0118279Y0033345D01*
X0119896Y0032676D01*
X0120369Y0032676D01*
X0120369Y0030229D01*
X0119040Y0028900D01*
X0099552Y0028900D01*
X0098322Y0027670D01*
X0097568Y0026916D01*
X0097207Y0027276D01*
X0095977Y0028506D01*
X0084363Y0028506D01*
X0083575Y0029294D01*
X0082001Y0030868D01*
X0079638Y0030868D01*
X0077522Y0032985D01*
X0077522Y0035859D01*
X0077514Y0035867D01*
X0077514Y0036202D01*
X0077556Y0036243D01*
X0080415Y0036243D01*
X0081353Y0037181D01*
X0081353Y0040172D01*
X0081353Y0039574D02*
X0117047Y0039574D01*
X0116382Y0037975D02*
X0081353Y0037975D01*
X0080549Y0036377D02*
X0116372Y0036377D01*
X0116961Y0034778D02*
X0077522Y0034778D01*
X0077522Y0033180D02*
X0118679Y0033180D01*
X0120369Y0031581D02*
X0078926Y0031581D01*
X0082886Y0029983D02*
X0120123Y0029983D01*
X0122866Y0026786D02*
X0131692Y0026786D01*
X0131695Y0028384D02*
X0124464Y0028384D01*
X0124569Y0029983D02*
X0131698Y0029983D01*
X0131700Y0031581D02*
X0124569Y0031581D01*
X0128464Y0033180D02*
X0131703Y0033180D01*
X0131706Y0034778D02*
X0130183Y0034778D01*
X0130772Y0036377D02*
X0131709Y0036377D01*
X0131712Y0037975D02*
X0130762Y0037975D01*
X0130096Y0039574D02*
X0131715Y0039574D01*
X0131718Y0041172D02*
X0127979Y0041172D01*
X0127449Y0042589D02*
X0126734Y0042476D01*
X0123672Y0042476D01*
X0123672Y0046976D01*
X0123672Y0047176D01*
X0123472Y0047176D01*
X0123472Y0051676D01*
X0120410Y0051676D01*
X0119694Y0051562D01*
X0119006Y0051339D01*
X0118361Y0051010D01*
X0117775Y0050584D01*
X0117263Y0050072D01*
X0116837Y0049487D01*
X0116509Y0048841D01*
X0116285Y0048153D01*
X0116172Y0047438D01*
X0116172Y0047176D01*
X0123472Y0047176D01*
X0123472Y0046976D01*
X0116172Y0046976D01*
X0116172Y0046714D01*
X0116285Y0045998D01*
X0116509Y0045310D01*
X0116837Y0044665D01*
X0117263Y0044079D01*
X0117775Y0043567D01*
X0118361Y0043141D01*
X0119006Y0042813D01*
X0119694Y0042589D01*
X0120410Y0042476D01*
X0123472Y0042476D01*
X0123472Y0046976D01*
X0123672Y0046976D01*
X0130972Y0046976D01*
X0130972Y0046714D01*
X0130858Y0045998D01*
X0130635Y0045310D01*
X0130306Y0044665D01*
X0129880Y0044079D01*
X0129368Y0043567D01*
X0128783Y0043141D01*
X0128137Y0042813D01*
X0127449Y0042589D01*
X0128009Y0042771D02*
X0131721Y0042771D01*
X0131724Y0044369D02*
X0130091Y0044369D01*
X0130848Y0045968D02*
X0131727Y0045968D01*
X0130972Y0047176D02*
X0130972Y0047438D01*
X0130858Y0048153D01*
X0130635Y0048841D01*
X0130306Y0049487D01*
X0129880Y0050072D01*
X0129368Y0050584D01*
X0128783Y0051010D01*
X0128137Y0051339D01*
X0127449Y0051562D01*
X0126734Y0051676D01*
X0123672Y0051676D01*
X0123672Y0047176D01*
X0130972Y0047176D01*
X0130951Y0047566D02*
X0131730Y0047566D01*
X0131733Y0049165D02*
X0130470Y0049165D01*
X0131736Y0050763D02*
X0129122Y0050763D01*
X0131739Y0052362D02*
X0105555Y0052362D01*
X0105762Y0053960D02*
X0117664Y0053960D01*
X0116331Y0055559D02*
X0105970Y0055559D01*
X0107568Y0057157D02*
X0114733Y0057157D01*
X0113480Y0058756D02*
X0109167Y0058756D01*
X0110765Y0060354D02*
X0113480Y0060354D01*
X0113480Y0061953D02*
X0112364Y0061953D01*
X0118365Y0066748D02*
X0118988Y0066748D01*
X0117630Y0067483D02*
X0117630Y0067483D01*
X0116766Y0068347D02*
X0131769Y0068347D01*
X0131772Y0069945D02*
X0116695Y0069945D01*
X0116695Y0071544D02*
X0131774Y0071544D01*
X0131777Y0073142D02*
X0118437Y0073142D01*
X0119148Y0074741D02*
X0131780Y0074741D01*
X0131783Y0076339D02*
X0119148Y0076339D01*
X0119148Y0077938D02*
X0131786Y0077938D01*
X0131789Y0079537D02*
X0119148Y0079537D01*
X0119098Y0081135D02*
X0131792Y0081135D01*
X0131795Y0082734D02*
X0110396Y0082734D01*
X0110396Y0084332D02*
X0131798Y0084332D01*
X0131801Y0085931D02*
X0110396Y0085931D01*
X0110396Y0087529D02*
X0131804Y0087529D01*
X0131807Y0089128D02*
X0120095Y0089128D01*
X0120135Y0089280D02*
X0120135Y0091990D01*
X0116256Y0091990D01*
X0116256Y0087717D01*
X0118572Y0087717D01*
X0119030Y0087839D01*
X0119441Y0088076D01*
X0119776Y0088411D01*
X0120013Y0088822D01*
X0120135Y0089280D01*
X0120135Y0090726D02*
X0131810Y0090726D01*
X0131813Y0092325D02*
X0116256Y0092325D01*
X0116256Y0092949D02*
X0120135Y0092949D01*
X0120135Y0095659D01*
X0120013Y0096117D01*
X0119776Y0096527D01*
X0119441Y0096862D01*
X0119030Y0097099D01*
X0118572Y0097222D01*
X0116256Y0097222D01*
X0116256Y0092949D01*
X0116256Y0093923D02*
X0115297Y0093923D01*
X0115297Y0095522D02*
X0116256Y0095522D01*
X0116256Y0097120D02*
X0115297Y0097120D01*
X0114564Y0098719D02*
X0131825Y0098719D01*
X0131828Y0100317D02*
X0114975Y0100317D01*
X0114975Y0101916D02*
X0131831Y0101916D01*
X0131822Y0097120D02*
X0118953Y0097120D01*
X0120135Y0095522D02*
X0131819Y0095522D01*
X0131816Y0093923D02*
X0120135Y0093923D01*
X0116256Y0090726D02*
X0115297Y0090726D01*
X0115297Y0089128D02*
X0116256Y0089128D01*
X0112600Y0097120D02*
X0109736Y0097120D01*
X0114975Y0103514D02*
X0124259Y0103514D01*
X0125557Y0066748D02*
X0131766Y0066748D01*
X0131763Y0065150D02*
X0125854Y0065150D01*
X0125854Y0063551D02*
X0131760Y0063551D01*
X0131757Y0061953D02*
X0125854Y0061953D01*
X0129315Y0060354D02*
X0131754Y0060354D01*
X0131751Y0058756D02*
X0130438Y0058756D01*
X0130772Y0057157D02*
X0131748Y0057157D01*
X0131745Y0055559D02*
X0130506Y0055559D01*
X0129479Y0053960D02*
X0131742Y0053960D01*
X0123672Y0050763D02*
X0123472Y0050763D01*
X0123472Y0049165D02*
X0123672Y0049165D01*
X0123672Y0047566D02*
X0123472Y0047566D01*
X0123472Y0045968D02*
X0123672Y0045968D01*
X0123672Y0044369D02*
X0123472Y0044369D01*
X0123472Y0042771D02*
X0123672Y0042771D01*
X0119135Y0042771D02*
X0097119Y0042771D01*
X0097207Y0044369D02*
X0097729Y0044369D01*
X0100730Y0044369D02*
X0101689Y0044369D01*
X0101689Y0044291D02*
X0104399Y0044291D01*
X0104857Y0044414D01*
X0105267Y0044651D01*
X0105603Y0044986D01*
X0105840Y0045397D01*
X0105962Y0045854D01*
X0105962Y0048171D01*
X0101689Y0048171D01*
X0101689Y0044291D01*
X0101689Y0045968D02*
X0100730Y0045968D01*
X0100730Y0047566D02*
X0101689Y0047566D01*
X0105962Y0047566D02*
X0116192Y0047566D01*
X0116673Y0049165D02*
X0105962Y0049165D01*
X0105962Y0050763D02*
X0118021Y0050763D01*
X0116295Y0045968D02*
X0105962Y0045968D01*
X0104690Y0044369D02*
X0117052Y0044369D01*
X0119164Y0041172D02*
X0095520Y0041172D01*
X0095977Y0041629D02*
X0095977Y0041629D01*
X0096381Y0049165D02*
X0096457Y0049165D01*
X0096457Y0050763D02*
X0093085Y0050763D01*
X0092595Y0052362D02*
X0096863Y0052362D01*
X0096657Y0053960D02*
X0093085Y0053960D01*
X0096099Y0028384D02*
X0099036Y0028384D01*
X0100180Y0023589D02*
X0131686Y0023589D01*
X0131689Y0025187D02*
X0121267Y0025187D01*
X0131683Y0021990D02*
X0098582Y0021990D01*
X0097601Y0020392D02*
X0131680Y0020392D01*
X0131677Y0018793D02*
X0097601Y0018793D01*
X0097601Y0017195D02*
X0131674Y0017195D01*
X0131671Y0015596D02*
X0097601Y0015596D01*
X0097601Y0013998D02*
X0131668Y0013998D01*
X0131665Y0012399D02*
X0097601Y0012399D01*
X0097601Y0010801D02*
X0131662Y0010801D01*
X0131659Y0009202D02*
X0097408Y0009202D01*
X0095810Y0007603D02*
X0131656Y0007603D01*
M02*
